Inspired by a true story of a young Hasidic man who was lured into the world of international drug trafficking in the late 90s

Genre:Crime | Drama
Language:English  http://www.imdb.com/title/tt1143896/
Source:DVD

General
Complete name :Holy.Rollers.2010.DvDRip.XviD.Feel-Free
Format : AVI
Format/Info : Audio Video Interleave
File size : 1.07 GiB
Duration : 1h 28mn
Overall bit rate : 1 723 Kbps
Video #0
Muxing mode : Packed bitstream
Codec ID : XVID
Codec ID/Hint : XviD
Duration : 1h 28mn
Bit rate : 1 266 Kbps
Width : 652 pixels
Height : 352 pixels
Display aspect ratio : 1.852
Frame rate : 23.976 fps
Resolution : 24 bits
Colorimetry : 4:2:0
Scan type : Progressive
Bits/(Pixel*Frame) : 0.230
Stream size : 805 MiB (73%)
Writing library : XviD 1.2.1 (UTC 2008-12-04)
Audio #1
ID : 1
Format : AC-3
Format/Info : Audio Coding 3
Codec ID : 2000
Duration : 1h 28mn
Bit rate mode : Constant
Bit rate : 448 Kbps
Channel(s) : 6 channels
Channel positions : Front: L C R, Surround: L R, LFE
Sampling rate : 48.0 KHz
Stream size : 285 MiB (26%)
Alignment : Split accross interleaves
Interleave, duration : 42 ms (1.00 video frame)
Interleave, preload duration : 500 ms
